<mxfile host="app.diagrams.net" agent="Mozilla/5.0 (Windows NT 10.0; Win64; x64) AppleWebKit/537.36 (KHTML, like Gecko) Chrome/136.0.0.0 Safari/537.36" version="27.0.6">
  <diagram id="C5RBs43oDa-KdzZeNtuy" name="Page-1">
    <mxGraphModel dx="1016" dy="383" grid="1" gridSize="10" guides="1" tooltips="1" connect="1" arrows="1" fold="1" page="1" pageScale="1" pageWidth="827" pageHeight="1169" math="0" shadow="0">
      <root>
        <mxCell id="WIyWlLk6GJQsqaUBKTNV-0" />
        <mxCell id="WIyWlLk6GJQsqaUBKTNV-1" parent="WIyWlLk6GJQsqaUBKTNV-0" />
        <mxCell id="J8MFcIquBaI44OPtuUZQ-7" value="&amp;lt;&amp;lt;control&amp;gt;&amp;gt;&lt;br&gt;&lt;b&gt;Signup&lt;/b&gt;" style="swimlane;fontStyle=0;align=center;verticalAlign=top;childLayout=stackLayout;horizontal=1;startSize=55;horizontalStack=0;resizeParent=1;resizeParentMax=0;resizeLast=0;collapsible=0;marginBottom=0;html=1;whiteSpace=wrap;" parent="WIyWlLk6GJQsqaUBKTNV-1" vertex="1">
          <mxGeometry x="940" y="73" width="730" height="117" as="geometry" />
        </mxCell>
        <mxCell id="J8MFcIquBaI44OPtuUZQ-12" value="" style="line;strokeWidth=1;fillColor=none;align=left;verticalAlign=middle;spacingTop=-1;spacingLeft=3;spacingRight=3;rotatable=0;labelPosition=right;points=[];portConstraint=eastwest;" parent="J8MFcIquBaI44OPtuUZQ-7" vertex="1">
          <mxGeometry y="55" width="730" height="8" as="geometry" />
        </mxCell>
        <mxCell id="tMEmlADvHrULCgxV8oNI-0" value="&lt;b&gt;+ Signup(&lt;/b&gt;&lt;b style=&quot;font-size: 11px; text-wrap-mode: nowrap;&quot;&gt;outFp: ofstream&amp;amp;, inFp: ifstream&amp;amp;,&amp;nbsp;&lt;/b&gt;&lt;b style=&quot;font-size: 11px; text-align: center; text-wrap-mode: nowrap;&quot;&gt;members: RegisteredMember&amp;amp;&lt;/b&gt;&lt;b&gt;)&lt;/b&gt;" style="text;html=1;strokeColor=none;fillColor=none;align=left;verticalAlign=middle;spacingLeft=4;spacingRight=4;overflow=hidden;rotatable=0;points=[[0,0.5],[1,0.5]];portConstraint=eastwest;whiteSpace=wrap;" parent="J8MFcIquBaI44OPtuUZQ-7" vertex="1">
          <mxGeometry y="63" width="730" height="27" as="geometry" />
        </mxCell>
        <mxCell id="J8MFcIquBaI44OPtuUZQ-13" value="&lt;b&gt;+ signup(&lt;/b&gt;&lt;b style=&quot;font-size: 11px; text-wrap-mode: nowrap;&quot;&gt;id: string, password: string, tel : string,&amp;nbsp;&lt;/b&gt;&lt;b style=&quot;font-size: 11px; text-align: center; text-wrap-mode: nowrap;&quot;&gt;members: RegisteredMember&amp;amp;&lt;/b&gt;&lt;b&gt;): void&lt;/b&gt;" style="text;html=1;strokeColor=none;fillColor=none;align=left;verticalAlign=middle;spacingLeft=4;spacingRight=4;overflow=hidden;rotatable=0;points=[[0,0.5],[1,0.5]];portConstraint=eastwest;whiteSpace=wrap;" parent="J8MFcIquBaI44OPtuUZQ-7" vertex="1">
          <mxGeometry y="90" width="730" height="27" as="geometry" />
        </mxCell>
        <mxCell id="J8MFcIquBaI44OPtuUZQ-15" value="&amp;lt;&amp;lt;boundary&amp;gt;&amp;gt;&lt;br&gt;&lt;b&gt;SignupUI&lt;/b&gt;" style="swimlane;fontStyle=0;align=center;verticalAlign=top;childLayout=stackLayout;horizontal=1;startSize=55;horizontalStack=0;resizeParent=1;resizeParentMax=0;resizeLast=0;collapsible=0;marginBottom=0;html=1;whiteSpace=wrap;" parent="WIyWlLk6GJQsqaUBKTNV-1" vertex="1">
          <mxGeometry x="20" y="73" width="820" height="132" as="geometry" />
        </mxCell>
        <mxCell id="QMeGvAC8nn5fREAp3r3B-22" value="&lt;b style=&quot;font-size: 11px; text-wrap-mode: nowrap;&quot;&gt;- signupControl: Signup&lt;/b&gt;" style="text;html=1;strokeColor=none;fillColor=none;align=left;verticalAlign=middle;spacingLeft=4;spacingRight=4;overflow=hidden;rotatable=0;points=[[0,0.5],[1,0.5]];portConstraint=eastwest;whiteSpace=wrap;" parent="J8MFcIquBaI44OPtuUZQ-15" vertex="1">
          <mxGeometry y="55" width="820" height="23" as="geometry" />
        </mxCell>
        <mxCell id="J8MFcIquBaI44OPtuUZQ-16" value="" style="line;strokeWidth=1;fillColor=none;align=left;verticalAlign=middle;spacingTop=-1;spacingLeft=3;spacingRight=3;rotatable=0;labelPosition=right;points=[];portConstraint=eastwest;" parent="J8MFcIquBaI44OPtuUZQ-15" vertex="1">
          <mxGeometry y="78" width="820" height="8" as="geometry" />
        </mxCell>
        <mxCell id="zSda_dX7yFpJcAKMwc4G-0" value="&lt;b style=&quot;font-size: 11px; text-wrap-mode: nowrap;&quot;&gt;+ SignupUI(signupControl: Signup)&lt;/b&gt;" style="text;html=1;strokeColor=none;fillColor=none;align=left;verticalAlign=middle;spacingLeft=4;spacingRight=4;overflow=hidden;rotatable=0;points=[[0,0.5],[1,0.5]];portConstraint=eastwest;whiteSpace=wrap;" parent="J8MFcIquBaI44OPtuUZQ-15" vertex="1">
          <mxGeometry y="86" width="820" height="23" as="geometry" />
        </mxCell>
        <mxCell id="J8MFcIquBaI44OPtuUZQ-22" value="&lt;b style=&quot;font-size: 11px; text-wrap-mode: nowrap;&quot;&gt;+ submitSignupInfo(outFp: ofstream&amp;amp;, inFp: ifstream&amp;amp;, members: RegisteredMember&amp;amp;): void&lt;/b&gt;" style="text;html=1;strokeColor=none;fillColor=none;align=left;verticalAlign=middle;spacingLeft=4;spacingRight=4;overflow=hidden;rotatable=0;points=[[0,0.5],[1,0.5]];portConstraint=eastwest;whiteSpace=wrap;" parent="J8MFcIquBaI44OPtuUZQ-15" vertex="1">
          <mxGeometry y="109" width="820" height="23" as="geometry" />
        </mxCell>
        <mxCell id="J8MFcIquBaI44OPtuUZQ-23" value="&amp;lt;&amp;lt;control&amp;gt;&amp;gt;&lt;br&gt;&lt;b&gt;Login&lt;/b&gt;" style="swimlane;fontStyle=0;align=center;verticalAlign=top;childLayout=stackLayout;horizontal=1;startSize=55;horizontalStack=0;resizeParent=1;resizeParentMax=0;resizeLast=0;collapsible=0;marginBottom=0;html=1;whiteSpace=wrap;" parent="WIyWlLk6GJQsqaUBKTNV-1" vertex="1">
          <mxGeometry x="940" y="230" width="730" height="110" as="geometry" />
        </mxCell>
        <mxCell id="J8MFcIquBaI44OPtuUZQ-24" value="" style="line;strokeWidth=1;fillColor=none;align=left;verticalAlign=middle;spacingTop=-1;spacingLeft=3;spacingRight=3;rotatable=0;labelPosition=right;points=[];portConstraint=eastwest;" parent="J8MFcIquBaI44OPtuUZQ-23" vertex="1">
          <mxGeometry y="55" width="730" height="8" as="geometry" />
        </mxCell>
        <mxCell id="tMEmlADvHrULCgxV8oNI-1" value="&lt;b&gt;+ Login(&lt;/b&gt;&lt;b style=&quot;font-size: 11px; text-wrap-mode: nowrap;&quot;&gt;outFp: ofstream&amp;amp;, inFp: ifstream&amp;amp;,&amp;nbsp;&lt;/b&gt;&lt;b style=&quot;font-size: 11px; text-align: center; text-wrap-mode: nowrap;&quot;&gt;members: RegisteredMember&amp;amp;&lt;/b&gt;&lt;b&gt;)&lt;/b&gt;" style="text;html=1;strokeColor=none;fillColor=none;align=left;verticalAlign=middle;spacingLeft=4;spacingRight=4;overflow=hidden;rotatable=0;points=[[0,0.5],[1,0.5]];portConstraint=eastwest;whiteSpace=wrap;" parent="J8MFcIquBaI44OPtuUZQ-23" vertex="1">
          <mxGeometry y="63" width="730" height="20" as="geometry" />
        </mxCell>
        <mxCell id="J8MFcIquBaI44OPtuUZQ-25" value="&lt;b&gt;+ login(&lt;/b&gt;&lt;b style=&quot;font-size: 11px; text-wrap-mode: nowrap;&quot;&gt;id: string, password: string,&amp;nbsp;&lt;/b&gt;&lt;b style=&quot;font-size: 11px; text-align: center; text-wrap-mode: nowrap;&quot;&gt;members: RegisteredMember&amp;amp;&lt;/b&gt;&lt;b&gt;): void&lt;/b&gt;" style="text;html=1;strokeColor=none;fillColor=none;align=left;verticalAlign=middle;spacingLeft=4;spacingRight=4;overflow=hidden;rotatable=0;points=[[0,0.5],[1,0.5]];portConstraint=eastwest;whiteSpace=wrap;" parent="J8MFcIquBaI44OPtuUZQ-23" vertex="1">
          <mxGeometry y="83" width="730" height="27" as="geometry" />
        </mxCell>
        <mxCell id="J8MFcIquBaI44OPtuUZQ-26" value="&amp;lt;&amp;lt;boundary&amp;gt;&amp;gt;&lt;br&gt;&lt;b&gt;LoginUI&lt;/b&gt;" style="swimlane;fontStyle=0;align=center;verticalAlign=top;childLayout=stackLayout;horizontal=1;startSize=55;horizontalStack=0;resizeParent=1;resizeParentMax=0;resizeLast=0;collapsible=0;marginBottom=0;html=1;whiteSpace=wrap;" parent="WIyWlLk6GJQsqaUBKTNV-1" vertex="1">
          <mxGeometry x="20" y="230" width="820" height="137" as="geometry" />
        </mxCell>
        <mxCell id="QMeGvAC8nn5fREAp3r3B-23" value="&lt;span style=&quot;font-size: 11px; text-wrap-mode: nowrap;&quot;&gt;&lt;b&gt;- loginControl: Login&lt;/b&gt;&lt;/span&gt;" style="text;html=1;strokeColor=none;fillColor=none;align=left;verticalAlign=middle;spacingLeft=4;spacingRight=4;overflow=hidden;rotatable=0;points=[[0,0.5],[1,0.5]];portConstraint=eastwest;whiteSpace=wrap;" parent="J8MFcIquBaI44OPtuUZQ-26" vertex="1">
          <mxGeometry y="55" width="820" height="20" as="geometry" />
        </mxCell>
        <mxCell id="J8MFcIquBaI44OPtuUZQ-27" value="" style="line;strokeWidth=1;fillColor=none;align=left;verticalAlign=middle;spacingTop=-1;spacingLeft=3;spacingRight=3;rotatable=0;labelPosition=right;points=[];portConstraint=eastwest;" parent="J8MFcIquBaI44OPtuUZQ-26" vertex="1">
          <mxGeometry y="75" width="820" height="8" as="geometry" />
        </mxCell>
        <mxCell id="J8MFcIquBaI44OPtuUZQ-29" value="&lt;b style=&quot;font-size: 11px; text-wrap-mode: nowrap;&quot;&gt;+ LoginUI(loginControl: Login&lt;/b&gt;&lt;b style=&quot;font-size: 11px; text-align: center; text-wrap-mode: nowrap;&quot;&gt;)&lt;/b&gt;" style="text;html=1;strokeColor=none;fillColor=none;align=left;verticalAlign=middle;spacingLeft=4;spacingRight=4;overflow=hidden;rotatable=0;points=[[0,0.5],[1,0.5]];portConstraint=eastwest;whiteSpace=wrap;" parent="J8MFcIquBaI44OPtuUZQ-26" vertex="1">
          <mxGeometry y="83" width="820" height="27" as="geometry" />
        </mxCell>
        <mxCell id="zSda_dX7yFpJcAKMwc4G-1" value="&lt;b style=&quot;font-size: 11px; text-wrap-mode: nowrap;&quot;&gt;+ submitLoginInfo(&lt;/b&gt;&lt;b style=&quot;font-size: 11px; text-align: center; text-wrap-mode: nowrap;&quot;&gt;outFp: ofstream&amp;amp;, inFp: ifstream&amp;amp;,&amp;nbsp;&lt;/b&gt;&lt;b style=&quot;text-align: center;&quot;&gt;members:RegisteredMember&amp;amp;&lt;/b&gt;&lt;b style=&quot;font-size: 11px; text-align: center; text-wrap-mode: nowrap;&quot;&gt;): void&lt;/b&gt;" style="text;html=1;strokeColor=none;fillColor=none;align=left;verticalAlign=middle;spacingLeft=4;spacingRight=4;overflow=hidden;rotatable=0;points=[[0,0.5],[1,0.5]];portConstraint=eastwest;whiteSpace=wrap;" parent="J8MFcIquBaI44OPtuUZQ-26" vertex="1">
          <mxGeometry y="110" width="820" height="27" as="geometry" />
        </mxCell>
        <mxCell id="J8MFcIquBaI44OPtuUZQ-30" value="&amp;lt;&amp;lt;control&amp;gt;&amp;gt;&lt;br&gt;&lt;b&gt;Logout&lt;/b&gt;" style="swimlane;fontStyle=0;align=center;verticalAlign=top;childLayout=stackLayout;horizontal=1;startSize=55;horizontalStack=0;resizeParent=1;resizeParentMax=0;resizeLast=0;collapsible=0;marginBottom=0;html=1;whiteSpace=wrap;" parent="WIyWlLk6GJQsqaUBKTNV-1" vertex="1">
          <mxGeometry x="940" y="394" width="730" height="113" as="geometry" />
        </mxCell>
        <mxCell id="QMeGvAC8nn5fREAp3r3B-12" value="" style="endArrow=open;endFill=1;endSize=12;html=1;rounded=0;entryX=1;entryY=0.5;entryDx=0;entryDy=0;" parent="J8MFcIquBaI44OPtuUZQ-30" target="J8MFcIquBaI44OPtuUZQ-33" edge="1">
          <mxGeometry width="160" relative="1" as="geometry">
            <mxPoint y="41" as="sourcePoint" />
            <mxPoint x="100.25999999999999" y="41" as="targetPoint" />
          </mxGeometry>
        </mxCell>
        <mxCell id="QMeGvAC8nn5fREAp3r3B-24" value="&lt;b&gt;- logoutUI: LogoutUI&lt;/b&gt;" style="text;html=1;strokeColor=none;fillColor=none;align=left;verticalAlign=middle;spacingLeft=4;spacingRight=4;overflow=hidden;rotatable=0;points=[[0,0.5],[1,0.5]];portConstraint=eastwest;whiteSpace=wrap;" parent="J8MFcIquBaI44OPtuUZQ-30" vertex="1">
          <mxGeometry y="55" width="730" height="25" as="geometry" />
        </mxCell>
        <mxCell id="J8MFcIquBaI44OPtuUZQ-31" value="" style="line;strokeWidth=1;fillColor=none;align=left;verticalAlign=middle;spacingTop=-1;spacingLeft=3;spacingRight=3;rotatable=0;labelPosition=right;points=[];portConstraint=eastwest;" parent="J8MFcIquBaI44OPtuUZQ-30" vertex="1">
          <mxGeometry y="80" width="730" height="8" as="geometry" />
        </mxCell>
        <mxCell id="tMEmlADvHrULCgxV8oNI-3" value="&lt;b&gt;+ Logout(&lt;/b&gt;&lt;b style=&quot;font-size: 11px; text-wrap-mode: nowrap;&quot;&gt;outFp: ofstream&amp;amp;,&amp;nbsp;&lt;/b&gt;&lt;b style=&quot;font-size: 11px; text-wrap-mode: nowrap; text-align: center;&quot;&gt;members: RegisteredMember&amp;amp;)&lt;/b&gt;" style="text;html=1;strokeColor=none;fillColor=none;align=left;verticalAlign=middle;spacingLeft=4;spacingRight=4;overflow=hidden;rotatable=0;points=[[0,0.5],[1,0.5]];portConstraint=eastwest;whiteSpace=wrap;" parent="J8MFcIquBaI44OPtuUZQ-30" vertex="1">
          <mxGeometry y="88" width="730" height="25" as="geometry" />
        </mxCell>
        <mxCell id="J8MFcIquBaI44OPtuUZQ-33" value="&amp;lt;&amp;lt;boundary&amp;gt;&amp;gt;&lt;br&gt;&lt;b&gt;LogoutUI&lt;/b&gt;" style="swimlane;fontStyle=0;align=center;verticalAlign=top;childLayout=stackLayout;horizontal=1;startSize=55;horizontalStack=0;resizeParent=1;resizeParentMax=0;resizeLast=0;collapsible=0;marginBottom=0;html=1;whiteSpace=wrap;" parent="WIyWlLk6GJQsqaUBKTNV-1" vertex="1">
          <mxGeometry x="20" y="394" width="820" height="83" as="geometry" />
        </mxCell>
        <mxCell id="J8MFcIquBaI44OPtuUZQ-34" value="" style="line;strokeWidth=1;fillColor=none;align=left;verticalAlign=middle;spacingTop=-1;spacingLeft=3;spacingRight=3;rotatable=0;labelPosition=right;points=[];portConstraint=eastwest;" parent="J8MFcIquBaI44OPtuUZQ-33" vertex="1">
          <mxGeometry y="55" width="820" height="8" as="geometry" />
        </mxCell>
        <mxCell id="5gDiv9KF2kFpocqjJH2v-3" value="&lt;b style=&quot;font-size: 11px; text-wrap-mode: nowrap;&quot;&gt;+ startInterface(&lt;/b&gt;&lt;b style=&quot;font-size: 11px; text-wrap-mode: nowrap; text-align: center;&quot;&gt;outFp: ofstream&amp;amp;, id: string&lt;/b&gt;&lt;b style=&quot;font-size: 11px; text-wrap-mode: nowrap;&quot;&gt;): void&lt;/b&gt;" style="text;html=1;strokeColor=none;fillColor=none;align=left;verticalAlign=middle;spacingLeft=4;spacingRight=4;overflow=hidden;rotatable=0;points=[[0,0.5],[1,0.5]];portConstraint=eastwest;whiteSpace=wrap;" parent="J8MFcIquBaI44OPtuUZQ-33" vertex="1">
          <mxGeometry y="63" width="820" height="20" as="geometry" />
        </mxCell>
        <mxCell id="J8MFcIquBaI44OPtuUZQ-37" value="&amp;lt;&amp;lt;control&amp;gt;&amp;gt;&lt;br&gt;&lt;b&gt;AddBicycle&lt;/b&gt;" style="swimlane;fontStyle=0;align=center;verticalAlign=top;childLayout=stackLayout;horizontal=1;startSize=55;horizontalStack=0;resizeParent=1;resizeParentMax=0;resizeLast=0;collapsible=0;marginBottom=0;html=1;whiteSpace=wrap;" parent="WIyWlLk6GJQsqaUBKTNV-1" vertex="1">
          <mxGeometry x="940" y="522" width="730" height="103" as="geometry" />
        </mxCell>
        <mxCell id="J8MFcIquBaI44OPtuUZQ-38" value="" style="line;strokeWidth=1;fillColor=none;align=left;verticalAlign=middle;spacingTop=-1;spacingLeft=3;spacingRight=3;rotatable=0;labelPosition=right;points=[];portConstraint=eastwest;" parent="J8MFcIquBaI44OPtuUZQ-37" vertex="1">
          <mxGeometry y="55" width="730" height="8" as="geometry" />
        </mxCell>
        <mxCell id="J8MFcIquBaI44OPtuUZQ-39" value="&lt;b style=&quot;font-size: 11px; text-wrap-mode: nowrap;&quot;&gt;+ AddBicycle(&lt;/b&gt;&lt;b style=&quot;font-size: 11px; text-wrap-mode: nowrap;&quot;&gt;outFp: ofstream&amp;amp;, inFp: ifstream&amp;amp;,&amp;nbsp;&lt;/b&gt;&lt;b style=&quot;font-size: 11px; text-wrap-mode: nowrap;&quot;&gt;bicycles: RegisteredBicycle&amp;amp;)&lt;/b&gt;" style="text;html=1;strokeColor=none;fillColor=none;align=left;verticalAlign=middle;spacingLeft=4;spacingRight=4;overflow=hidden;rotatable=0;points=[[0,0.5],[1,0.5]];portConstraint=eastwest;whiteSpace=wrap;" parent="J8MFcIquBaI44OPtuUZQ-37" vertex="1">
          <mxGeometry y="63" width="730" height="20" as="geometry" />
        </mxCell>
        <mxCell id="tMEmlADvHrULCgxV8oNI-4" value="&lt;b style=&quot;font-size: 11px; text-wrap-mode: nowrap;&quot;&gt;+ addNewBicycle(bikeId: string, name: string, bicycles: RegisteredBicycle&amp;amp;): void&lt;/b&gt;" style="text;html=1;strokeColor=none;fillColor=none;align=left;verticalAlign=middle;spacingLeft=4;spacingRight=4;overflow=hidden;rotatable=0;points=[[0,0.5],[1,0.5]];portConstraint=eastwest;whiteSpace=wrap;" parent="J8MFcIquBaI44OPtuUZQ-37" vertex="1">
          <mxGeometry y="83" width="730" height="20" as="geometry" />
        </mxCell>
        <mxCell id="J8MFcIquBaI44OPtuUZQ-40" value="&amp;lt;&amp;lt;boundary&amp;gt;&amp;gt;&lt;br&gt;&lt;b&gt;AddBicycleUI&lt;/b&gt;" style="swimlane;fontStyle=0;align=center;verticalAlign=top;childLayout=stackLayout;horizontal=1;startSize=55;horizontalStack=0;resizeParent=1;resizeParentMax=0;resizeLast=0;collapsible=0;marginBottom=0;html=1;whiteSpace=wrap;" parent="WIyWlLk6GJQsqaUBKTNV-1" vertex="1">
          <mxGeometry x="20" y="522" width="820" height="123" as="geometry" />
        </mxCell>
        <mxCell id="QMeGvAC8nn5fREAp3r3B-25" value="&lt;span style=&quot;font-size: 11px; text-wrap-mode: nowrap;&quot;&gt;&lt;b&gt;- addBicycleControl: AddBicycle&lt;/b&gt;&lt;/span&gt;" style="text;html=1;strokeColor=none;fillColor=none;align=left;verticalAlign=middle;spacingLeft=4;spacingRight=4;overflow=hidden;rotatable=0;points=[[0,0.5],[1,0.5]];portConstraint=eastwest;whiteSpace=wrap;" parent="J8MFcIquBaI44OPtuUZQ-40" vertex="1">
          <mxGeometry y="55" width="820" height="20" as="geometry" />
        </mxCell>
        <mxCell id="J8MFcIquBaI44OPtuUZQ-41" value="" style="line;strokeWidth=1;fillColor=none;align=left;verticalAlign=middle;spacingTop=-1;spacingLeft=3;spacingRight=3;rotatable=0;labelPosition=right;points=[];portConstraint=eastwest;" parent="J8MFcIquBaI44OPtuUZQ-40" vertex="1">
          <mxGeometry y="75" width="820" height="8" as="geometry" />
        </mxCell>
        <mxCell id="zSda_dX7yFpJcAKMwc4G-2" value="&lt;b style=&quot;font-size: 11px; text-wrap-mode: nowrap;&quot;&gt;+ AddBicycleUI(addBicycleControl: AddBicycle&lt;/b&gt;&lt;b style=&quot;font-size: 11px; text-wrap-mode: nowrap;&quot;&gt;)&lt;/b&gt;" style="text;html=1;strokeColor=none;fillColor=none;align=left;verticalAlign=middle;spacingLeft=4;spacingRight=4;overflow=hidden;rotatable=0;points=[[0,0.5],[1,0.5]];portConstraint=eastwest;whiteSpace=wrap;" parent="J8MFcIquBaI44OPtuUZQ-40" vertex="1">
          <mxGeometry y="83" width="820" height="20" as="geometry" />
        </mxCell>
        <mxCell id="J8MFcIquBaI44OPtuUZQ-43" value="&lt;b style=&quot;font-size: 11px; text-wrap-mode: nowrap;&quot;&gt;+ submitBicycleInfo(&lt;/b&gt;&lt;b style=&quot;font-size: 11px; text-wrap-mode: nowrap;&quot;&gt;outFp: ofstream&amp;amp;, inFp: ifstream&amp;amp;,&amp;nbsp;&lt;/b&gt;&lt;b&gt;bicycles:RegisteredBicycle&amp;amp;&lt;/b&gt;&lt;b style=&quot;font-size: 11px; text-wrap-mode: nowrap;&quot;&gt;): void&lt;/b&gt;" style="text;html=1;strokeColor=none;fillColor=none;align=left;verticalAlign=middle;spacingLeft=4;spacingRight=4;overflow=hidden;rotatable=0;points=[[0,0.5],[1,0.5]];portConstraint=eastwest;whiteSpace=wrap;" parent="J8MFcIquBaI44OPtuUZQ-40" vertex="1">
          <mxGeometry y="103" width="820" height="20" as="geometry" />
        </mxCell>
        <mxCell id="owUqDL3eg5WfUYwN33RE-0" value="&amp;lt;&amp;lt;control&amp;gt;&amp;gt;&lt;br&gt;&lt;b&gt;ShowBicycleRentalInfo&lt;/b&gt;" style="swimlane;fontStyle=0;align=center;verticalAlign=top;childLayout=stackLayout;horizontal=1;startSize=55;horizontalStack=0;resizeParent=1;resizeParentMax=0;resizeLast=0;collapsible=0;marginBottom=0;html=1;whiteSpace=wrap;" parent="WIyWlLk6GJQsqaUBKTNV-1" vertex="1">
          <mxGeometry x="940" y="665" width="730" height="103" as="geometry" />
        </mxCell>
        <mxCell id="QMeGvAC8nn5fREAp3r3B-26" value="&lt;b&gt;- showBicycleRentalInfoUI:&amp;nbsp;&lt;/b&gt;&lt;b&gt;ShowBicycleRentalInfoUI&lt;/b&gt;" style="text;html=1;strokeColor=none;fillColor=none;align=left;verticalAlign=middle;spacingLeft=4;spacingRight=4;overflow=hidden;rotatable=0;points=[[0,0.5],[1,0.5]];portConstraint=eastwest;whiteSpace=wrap;" parent="owUqDL3eg5WfUYwN33RE-0" vertex="1">
          <mxGeometry y="55" width="730" height="20" as="geometry" />
        </mxCell>
        <mxCell id="owUqDL3eg5WfUYwN33RE-1" value="" style="line;strokeWidth=1;fillColor=none;align=left;verticalAlign=middle;spacingTop=-1;spacingLeft=3;spacingRight=3;rotatable=0;labelPosition=right;points=[];portConstraint=eastwest;" parent="owUqDL3eg5WfUYwN33RE-0" vertex="1">
          <mxGeometry y="75" width="730" height="8" as="geometry" />
        </mxCell>
        <mxCell id="tMEmlADvHrULCgxV8oNI-5" value="&lt;b&gt;+ ShowBicycleRentalInfo(&lt;/b&gt;&lt;b style=&quot;font-size: 11px; text-wrap-mode: nowrap;&quot;&gt;outFp: ofstream&amp;amp;,&amp;nbsp;&lt;/b&gt;&lt;b style=&quot;font-size: 11px; text-wrap-mode: nowrap; text-align: center;&quot;&gt;members: RegisteredMember&amp;amp;&lt;/b&gt;&lt;b style=&quot;font-size: 11px; text-wrap-mode: nowrap;&quot;&gt;)&lt;/b&gt;" style="text;html=1;strokeColor=none;fillColor=none;align=left;verticalAlign=middle;spacingLeft=4;spacingRight=4;overflow=hidden;rotatable=0;points=[[0,0.5],[1,0.5]];portConstraint=eastwest;whiteSpace=wrap;" parent="owUqDL3eg5WfUYwN33RE-0" vertex="1">
          <mxGeometry y="83" width="730" height="20" as="geometry" />
        </mxCell>
        <mxCell id="owUqDL3eg5WfUYwN33RE-3" value="&amp;lt;&amp;lt;boundary&amp;gt;&amp;gt;&lt;br&gt;&lt;b&gt;ShowBicycleRentalInfoUI&lt;/b&gt;" style="swimlane;fontStyle=0;align=center;verticalAlign=top;childLayout=stackLayout;horizontal=1;startSize=55;horizontalStack=0;resizeParent=1;resizeParentMax=0;resizeLast=0;collapsible=0;marginBottom=0;html=1;whiteSpace=wrap;" parent="WIyWlLk6GJQsqaUBKTNV-1" vertex="1">
          <mxGeometry x="20" y="665" width="820" height="83" as="geometry" />
        </mxCell>
        <mxCell id="owUqDL3eg5WfUYwN33RE-4" value="" style="line;strokeWidth=1;fillColor=none;align=left;verticalAlign=middle;spacingTop=-1;spacingLeft=3;spacingRight=3;rotatable=0;labelPosition=right;points=[];portConstraint=eastwest;" parent="owUqDL3eg5WfUYwN33RE-3" vertex="1">
          <mxGeometry y="55" width="820" height="8" as="geometry" />
        </mxCell>
        <mxCell id="owUqDL3eg5WfUYwN33RE-5" value="&lt;b style=&quot;font-size: 11px; text-wrap-mode: nowrap;&quot;&gt;+ startInterface(&lt;/b&gt;&lt;b style=&quot;font-size: 11px; text-wrap-mode: nowrap;&quot;&gt;outFp: ofstream&amp;amp;, bicycleDetails: vector&amp;lt;vector&amp;lt;string&amp;gt;&amp;gt;&amp;amp;&lt;/b&gt;&lt;b style=&quot;font-size: 11px; text-wrap-mode: nowrap;&quot;&gt;): void&lt;/b&gt;" style="text;html=1;strokeColor=none;fillColor=none;align=left;verticalAlign=middle;spacingLeft=4;spacingRight=4;overflow=hidden;rotatable=0;points=[[0,0.5],[1,0.5]];portConstraint=eastwest;whiteSpace=wrap;" parent="owUqDL3eg5WfUYwN33RE-3" vertex="1">
          <mxGeometry y="63" width="820" height="20" as="geometry" />
        </mxCell>
        <mxCell id="owUqDL3eg5WfUYwN33RE-6" value="&amp;lt;&amp;lt;boundary&amp;gt;&amp;gt;&lt;br&gt;&lt;b&gt;RentBicycleUI&lt;/b&gt;" style="swimlane;fontStyle=0;align=center;verticalAlign=top;childLayout=stackLayout;horizontal=1;startSize=55;horizontalStack=0;resizeParent=1;resizeParentMax=0;resizeLast=0;collapsible=0;marginBottom=0;html=1;whiteSpace=wrap;" parent="WIyWlLk6GJQsqaUBKTNV-1" vertex="1">
          <mxGeometry x="20" y="797" width="840" height="123" as="geometry" />
        </mxCell>
        <mxCell id="QMeGvAC8nn5fREAp3r3B-27" value="&lt;span style=&quot;font-size: 11px; text-wrap-mode: nowrap;&quot;&gt;&lt;b&gt;- rentBicycleControl: RentBicycle&lt;/b&gt;&lt;/span&gt;" style="text;html=1;strokeColor=none;fillColor=none;align=left;verticalAlign=middle;spacingLeft=4;spacingRight=4;overflow=hidden;rotatable=0;points=[[0,0.5],[1,0.5]];portConstraint=eastwest;whiteSpace=wrap;" parent="owUqDL3eg5WfUYwN33RE-6" vertex="1">
          <mxGeometry y="55" width="840" height="20" as="geometry" />
        </mxCell>
        <mxCell id="owUqDL3eg5WfUYwN33RE-7" value="" style="line;strokeWidth=1;fillColor=none;align=left;verticalAlign=middle;spacingTop=-1;spacingLeft=3;spacingRight=3;rotatable=0;labelPosition=right;points=[];portConstraint=eastwest;" parent="owUqDL3eg5WfUYwN33RE-6" vertex="1">
          <mxGeometry y="75" width="840" height="8" as="geometry" />
        </mxCell>
        <mxCell id="zSda_dX7yFpJcAKMwc4G-4" value="&lt;b style=&quot;font-size: 11px; text-wrap-mode: nowrap;&quot;&gt;+ RentBicycleUI(rentBicycleControl: RentBicycle&lt;/b&gt;&lt;b style=&quot;font-size: 11px; text-wrap-mode: nowrap;&quot;&gt;)&lt;/b&gt;" style="text;html=1;strokeColor=none;fillColor=none;align=left;verticalAlign=middle;spacingLeft=4;spacingRight=4;overflow=hidden;rotatable=0;points=[[0,0.5],[1,0.5]];portConstraint=eastwest;whiteSpace=wrap;" parent="owUqDL3eg5WfUYwN33RE-6" vertex="1">
          <mxGeometry y="83" width="840" height="20" as="geometry" />
        </mxCell>
        <mxCell id="owUqDL3eg5WfUYwN33RE-8" value="&lt;b style=&quot;font-size: 11px; text-wrap-mode: nowrap;&quot;&gt;+ selectBicycle(&lt;/b&gt;&lt;b style=&quot;font-size: 11px; text-wrap-mode: nowrap;&quot;&gt;outFp: ofstream&amp;amp;, inFp: ifstream&amp;amp;,&amp;nbsp;&lt;/b&gt;&lt;b style=&quot;text-align: center;&quot;&gt;members:RegisteredMember&amp;amp;,&amp;nbsp;&lt;/b&gt;&lt;b&gt;bicycles:RegisteredBicycle&amp;amp;&lt;/b&gt;&lt;b style=&quot;font-size: 11px; text-wrap-mode: nowrap;&quot;&gt;): void&lt;/b&gt;" style="text;html=1;strokeColor=none;fillColor=none;align=left;verticalAlign=middle;spacingLeft=4;spacingRight=4;overflow=hidden;rotatable=0;points=[[0,0.5],[1,0.5]];portConstraint=eastwest;whiteSpace=wrap;" parent="owUqDL3eg5WfUYwN33RE-6" vertex="1">
          <mxGeometry y="103" width="840" height="20" as="geometry" />
        </mxCell>
        <mxCell id="owUqDL3eg5WfUYwN33RE-9" value="&amp;lt;&amp;lt;control&amp;gt;&amp;gt;&lt;br&gt;&lt;b&gt;RentBicycle&lt;/b&gt;" style="swimlane;fontStyle=0;align=center;verticalAlign=top;childLayout=stackLayout;horizontal=1;startSize=55;horizontalStack=0;resizeParent=1;resizeParentMax=0;resizeLast=0;collapsible=0;marginBottom=0;html=1;whiteSpace=wrap;" parent="WIyWlLk6GJQsqaUBKTNV-1" vertex="1">
          <mxGeometry x="940" y="797" width="790" height="103" as="geometry" />
        </mxCell>
        <mxCell id="owUqDL3eg5WfUYwN33RE-10" value="" style="line;strokeWidth=1;fillColor=none;align=left;verticalAlign=middle;spacingTop=-1;spacingLeft=3;spacingRight=3;rotatable=0;labelPosition=right;points=[];portConstraint=eastwest;" parent="owUqDL3eg5WfUYwN33RE-9" vertex="1">
          <mxGeometry y="55" width="790" height="8" as="geometry" />
        </mxCell>
        <mxCell id="owUqDL3eg5WfUYwN33RE-11" value="&lt;b style=&quot;font-size: 11px; text-wrap-mode: nowrap;&quot;&gt;+ RentBicycle(&lt;/b&gt;&lt;b style=&quot;font-size: 11px; text-wrap-mode: nowrap;&quot;&gt;outFp: ofstream&amp;amp;, inFp: ifstream&amp;amp;,&amp;nbsp;&lt;/b&gt;&lt;b style=&quot;text-align: center;&quot;&gt;members:RegisteredMember&amp;amp;,&amp;nbsp;&lt;/b&gt;&lt;b&gt;bicycles:RegisteredBicycle&amp;amp;&lt;/b&gt;&lt;b style=&quot;font-size: 11px; text-wrap-mode: nowrap;&quot;&gt;)&lt;/b&gt;" style="text;html=1;strokeColor=none;fillColor=none;align=left;verticalAlign=middle;spacingLeft=4;spacingRight=4;overflow=hidden;rotatable=0;points=[[0,0.5],[1,0.5]];portConstraint=eastwest;whiteSpace=wrap;" parent="owUqDL3eg5WfUYwN33RE-9" vertex="1">
          <mxGeometry y="63" width="790" height="20" as="geometry" />
        </mxCell>
        <mxCell id="tMEmlADvHrULCgxV8oNI-6" value="&lt;b style=&quot;font-size: 11px; text-wrap-mode: nowrap;&quot;&gt;+ rentBicycle(bikeId: string,&amp;nbsp;&lt;/b&gt;&lt;b style=&quot;text-align: center;&quot;&gt;members:RegisteredMember&amp;amp;,&amp;nbsp;&lt;/b&gt;&lt;b&gt;bicycles:RegisteredBicycle&amp;amp;&lt;/b&gt;&lt;b style=&quot;font-size: 11px; text-wrap-mode: nowrap;&quot;&gt;): vector&amp;lt;string&amp;gt;&lt;/b&gt;" style="text;html=1;strokeColor=none;fillColor=none;align=left;verticalAlign=middle;spacingLeft=4;spacingRight=4;overflow=hidden;rotatable=0;points=[[0,0.5],[1,0.5]];portConstraint=eastwest;whiteSpace=wrap;" parent="owUqDL3eg5WfUYwN33RE-9" vertex="1">
          <mxGeometry y="83" width="790" height="20" as="geometry" />
        </mxCell>
        <mxCell id="owUqDL3eg5WfUYwN33RE-12" value="&amp;lt;&amp;lt;entity&amp;gt;&amp;gt;&lt;br&gt;&lt;b&gt;Bicycle&lt;/b&gt;" style="swimlane;fontStyle=0;align=center;verticalAlign=top;childLayout=stackLayout;horizontal=1;startSize=55;horizontalStack=0;resizeParent=1;resizeParentMax=0;resizeLast=0;collapsible=0;marginBottom=0;html=1;whiteSpace=wrap;" parent="WIyWlLk6GJQsqaUBKTNV-1" vertex="1">
          <mxGeometry x="779.12" y="1271" width="270.88" height="157" as="geometry" />
        </mxCell>
        <mxCell id="TFJGV4PpI1u5BgHAH2rM-19" value="&lt;b&gt;- bikeId: string&lt;/b&gt;" style="text;html=1;strokeColor=none;fillColor=none;align=left;verticalAlign=middle;spacingLeft=4;spacingRight=4;overflow=hidden;rotatable=0;points=[[0,0.5],[1,0.5]];portConstraint=eastwest;whiteSpace=wrap;" parent="owUqDL3eg5WfUYwN33RE-12" vertex="1">
          <mxGeometry y="55" width="270.88" height="20" as="geometry" />
        </mxCell>
        <mxCell id="TFJGV4PpI1u5BgHAH2rM-20" value="&lt;b&gt;- name: string&lt;/b&gt;" style="text;html=1;strokeColor=none;fillColor=none;align=left;verticalAlign=middle;spacingLeft=4;spacingRight=4;overflow=hidden;rotatable=0;points=[[0,0.5],[1,0.5]];portConstraint=eastwest;whiteSpace=wrap;" parent="owUqDL3eg5WfUYwN33RE-12" vertex="1">
          <mxGeometry y="75" width="270.88" height="20" as="geometry" />
        </mxCell>
        <mxCell id="owUqDL3eg5WfUYwN33RE-13" value="" style="line;strokeWidth=1;fillColor=none;align=left;verticalAlign=middle;spacingTop=-1;spacingLeft=3;spacingRight=3;rotatable=0;labelPosition=right;points=[];portConstraint=eastwest;" parent="owUqDL3eg5WfUYwN33RE-12" vertex="1">
          <mxGeometry y="95" width="270.88" height="8" as="geometry" />
        </mxCell>
        <mxCell id="iX8VP69kZqJXtn6z-eqK-0" value="&lt;b style=&quot;font-size: 11px; text-wrap-mode: nowrap;&quot;&gt;+ Bicycle(bikeId: string, name: string)&lt;/b&gt;" style="text;html=1;strokeColor=none;fillColor=none;align=left;verticalAlign=middle;spacingLeft=4;spacingRight=4;overflow=hidden;rotatable=0;points=[[0,0.5],[1,0.5]];portConstraint=eastwest;whiteSpace=wrap;" parent="owUqDL3eg5WfUYwN33RE-12" vertex="1">
          <mxGeometry y="103" width="270.88" height="27" as="geometry" />
        </mxCell>
        <mxCell id="owUqDL3eg5WfUYwN33RE-14" value="&lt;b style=&quot;font-size: 11px; text-wrap-mode: nowrap;&quot;&gt;+ getBicycleDetail(): vector&amp;lt;string&amp;gt;&lt;/b&gt;" style="text;html=1;strokeColor=none;fillColor=none;align=left;verticalAlign=middle;spacingLeft=4;spacingRight=4;overflow=hidden;rotatable=0;points=[[0,0.5],[1,0.5]];portConstraint=eastwest;whiteSpace=wrap;" parent="owUqDL3eg5WfUYwN33RE-12" vertex="1">
          <mxGeometry y="130" width="270.88" height="27" as="geometry" />
        </mxCell>
        <mxCell id="owUqDL3eg5WfUYwN33RE-15" value="&amp;lt;&amp;lt;entity&amp;gt;&amp;gt;&lt;br&gt;&lt;b&gt;Member&lt;/b&gt;" style="swimlane;fontStyle=0;align=center;verticalAlign=top;childLayout=stackLayout;horizontal=1;startSize=55;horizontalStack=0;resizeParent=1;resizeParentMax=0;resizeLast=0;collapsible=0;marginBottom=0;html=1;whiteSpace=wrap;" parent="WIyWlLk6GJQsqaUBKTNV-1" vertex="1">
          <mxGeometry x="240" y="977" width="357.37" height="307" as="geometry" />
        </mxCell>
        <mxCell id="TFJGV4PpI1u5BgHAH2rM-16" value="&lt;b&gt;- id: string&lt;/b&gt;" style="text;html=1;strokeColor=none;fillColor=none;align=left;verticalAlign=middle;spacingLeft=4;spacingRight=4;overflow=hidden;rotatable=0;points=[[0,0.5],[1,0.5]];portConstraint=eastwest;whiteSpace=wrap;" parent="owUqDL3eg5WfUYwN33RE-15" vertex="1">
          <mxGeometry y="55" width="357.37" height="20" as="geometry" />
        </mxCell>
        <mxCell id="TFJGV4PpI1u5BgHAH2rM-17" value="&lt;b&gt;- password: string&lt;/b&gt;" style="text;html=1;strokeColor=none;fillColor=none;align=left;verticalAlign=middle;spacingLeft=4;spacingRight=4;overflow=hidden;rotatable=0;points=[[0,0.5],[1,0.5]];portConstraint=eastwest;whiteSpace=wrap;" parent="owUqDL3eg5WfUYwN33RE-15" vertex="1">
          <mxGeometry y="75" width="357.37" height="20" as="geometry" />
        </mxCell>
        <mxCell id="TFJGV4PpI1u5BgHAH2rM-18" value="&lt;b&gt;- tel: string&lt;/b&gt;" style="text;html=1;strokeColor=none;fillColor=none;align=left;verticalAlign=middle;spacingLeft=4;spacingRight=4;overflow=hidden;rotatable=0;points=[[0,0.5],[1,0.5]];portConstraint=eastwest;whiteSpace=wrap;" parent="owUqDL3eg5WfUYwN33RE-15" vertex="1">
          <mxGeometry y="95" width="357.37" height="20" as="geometry" />
        </mxCell>
        <mxCell id="TFJGV4PpI1u5BgHAH2rM-21" value="&lt;b&gt;- isLoggedIn: bool = false&lt;/b&gt;" style="text;html=1;strokeColor=none;fillColor=none;align=left;verticalAlign=middle;spacingLeft=4;spacingRight=4;overflow=hidden;rotatable=0;points=[[0,0.5],[1,0.5]];portConstraint=eastwest;whiteSpace=wrap;" parent="owUqDL3eg5WfUYwN33RE-15" vertex="1">
          <mxGeometry y="115" width="357.37" height="20" as="geometry" />
        </mxCell>
        <mxCell id="kKlBXN92RMfAySFVlkef-5" value="&lt;b&gt;- rentedBicycleCollection: BicycleCollection&lt;/b&gt;" style="text;html=1;strokeColor=none;fillColor=none;align=left;verticalAlign=middle;spacingLeft=4;spacingRight=4;overflow=hidden;rotatable=0;points=[[0,0.5],[1,0.5]];portConstraint=eastwest;whiteSpace=wrap;" parent="owUqDL3eg5WfUYwN33RE-15" vertex="1">
          <mxGeometry y="135" width="357.37" height="20" as="geometry" />
        </mxCell>
        <mxCell id="owUqDL3eg5WfUYwN33RE-16" value="" style="line;strokeWidth=1;fillColor=none;align=left;verticalAlign=middle;spacingTop=-1;spacingLeft=3;spacingRight=3;rotatable=0;labelPosition=right;points=[];portConstraint=eastwest;" parent="owUqDL3eg5WfUYwN33RE-15" vertex="1">
          <mxGeometry y="155" width="357.37" height="8" as="geometry" />
        </mxCell>
        <mxCell id="5gDiv9KF2kFpocqjJH2v-4" value="&lt;b style=&quot;font-size: 11px; text-wrap-mode: nowrap;&quot;&gt;+ Member(id: string, password: string, tel: string)&lt;/b&gt;" style="text;html=1;strokeColor=none;fillColor=none;align=left;verticalAlign=middle;spacingLeft=4;spacingRight=4;overflow=hidden;rotatable=0;points=[[0,0.5],[1,0.5]];portConstraint=eastwest;whiteSpace=wrap;" parent="owUqDL3eg5WfUYwN33RE-15" vertex="1">
          <mxGeometry y="163" width="357.37" height="27" as="geometry" />
        </mxCell>
        <mxCell id="iX8VP69kZqJXtn6z-eqK-1" value="&lt;b style=&quot;font-size: 11px; text-wrap-mode: nowrap;&quot;&gt;+ login(): void&lt;/b&gt;" style="text;html=1;strokeColor=none;fillColor=none;align=left;verticalAlign=middle;spacingLeft=4;spacingRight=4;overflow=hidden;rotatable=0;points=[[0,0.5],[1,0.5]];portConstraint=eastwest;whiteSpace=wrap;" parent="owUqDL3eg5WfUYwN33RE-15" vertex="1">
          <mxGeometry y="190" width="357.37" height="27" as="geometry" />
        </mxCell>
        <mxCell id="TFJGV4PpI1u5BgHAH2rM-42" value="&lt;b style=&quot;font-size: 11px; text-wrap-mode: nowrap;&quot;&gt;+ logout(): void&lt;/b&gt;" style="text;html=1;strokeColor=none;fillColor=none;align=left;verticalAlign=middle;spacingLeft=4;spacingRight=4;overflow=hidden;rotatable=0;points=[[0,0.5],[1,0.5]];portConstraint=eastwest;whiteSpace=wrap;" parent="owUqDL3eg5WfUYwN33RE-15" vertex="1">
          <mxGeometry y="217" width="357.37" height="20" as="geometry" />
        </mxCell>
        <mxCell id="tzm_WvdHPwzCucV5R4sR-0" value="&lt;b style=&quot;font-size: 11px; text-wrap-mode: nowrap;&quot;&gt;+ getMemberDeatail(): vector&amp;lt;string&amp;gt;&lt;/b&gt;" style="text;html=1;strokeColor=none;fillColor=none;align=left;verticalAlign=middle;spacingLeft=4;spacingRight=4;overflow=hidden;rotatable=0;points=[[0,0.5],[1,0.5]];portConstraint=eastwest;whiteSpace=wrap;" parent="owUqDL3eg5WfUYwN33RE-15" vertex="1">
          <mxGeometry y="237" width="357.37" height="27" as="geometry" />
        </mxCell>
        <mxCell id="kKlBXN92RMfAySFVlkef-12" value="&lt;b style=&quot;font-size: 11px; text-wrap-mode: nowrap;&quot;&gt;+ addRentedBicycles(bicycle: Bicycle): void&lt;/b&gt;" style="text;html=1;strokeColor=none;fillColor=none;align=left;verticalAlign=middle;spacingLeft=4;spacingRight=4;overflow=hidden;rotatable=0;points=[[0,0.5],[1,0.5]];portConstraint=eastwest;whiteSpace=wrap;" parent="owUqDL3eg5WfUYwN33RE-15" vertex="1">
          <mxGeometry y="264" width="357.37" height="23" as="geometry" />
        </mxCell>
        <mxCell id="owUqDL3eg5WfUYwN33RE-17" value="&lt;b style=&quot;font-size: 11px; text-wrap-mode: nowrap;&quot;&gt;+ listRentedBicycles(): vector&amp;lt;Bicycle&amp;gt;&lt;/b&gt;" style="text;html=1;strokeColor=none;fillColor=none;align=left;verticalAlign=middle;spacingLeft=4;spacingRight=4;overflow=hidden;rotatable=0;points=[[0,0.5],[1,0.5]];portConstraint=eastwest;whiteSpace=wrap;" parent="owUqDL3eg5WfUYwN33RE-15" vertex="1">
          <mxGeometry y="287" width="357.37" height="20" as="geometry" />
        </mxCell>
        <mxCell id="owUqDL3eg5WfUYwN33RE-26" value="&lt;b&gt;1&lt;/b&gt;" style="text;html=1;align=center;verticalAlign=middle;whiteSpace=wrap;rounded=0;" parent="WIyWlLk6GJQsqaUBKTNV-1" vertex="1">
          <mxGeometry x="581.6199999999999" y="1014" width="60" height="30" as="geometry" />
        </mxCell>
        <mxCell id="owUqDL3eg5WfUYwN33RE-27" value="&lt;b&gt;1&lt;/b&gt;" style="text;html=1;align=center;verticalAlign=middle;whiteSpace=wrap;rounded=0;" parent="WIyWlLk6GJQsqaUBKTNV-1" vertex="1">
          <mxGeometry x="697.3699999999999" y="1014" width="60" height="30" as="geometry" />
        </mxCell>
        <mxCell id="TFJGV4PpI1u5BgHAH2rM-24" value="&amp;lt;&amp;lt;entity&amp;gt;&amp;gt;&lt;br&gt;&lt;b&gt;RegisteredMember&lt;/b&gt;" style="swimlane;fontStyle=0;align=center;verticalAlign=top;childLayout=stackLayout;horizontal=1;startSize=55;horizontalStack=0;resizeParent=1;resizeParentMax=0;resizeLast=0;collapsible=0;marginBottom=0;html=1;whiteSpace=wrap;" parent="WIyWlLk6GJQsqaUBKTNV-1" vertex="1">
          <mxGeometry x="230" y="1615.5" width="426.82" height="167" as="geometry" />
        </mxCell>
        <mxCell id="kKlBXN92RMfAySFVlkef-28" value="&lt;b style=&quot;font-size: 11px; text-wrap-mode: nowrap;&quot;&gt;- registeredMemberCollection: MemberCollection&lt;/b&gt;" style="text;html=1;strokeColor=none;fillColor=none;align=left;verticalAlign=middle;spacingLeft=4;spacingRight=4;overflow=hidden;rotatable=0;points=[[0,0.5],[1,0.5]];portConstraint=eastwest;whiteSpace=wrap;" parent="TFJGV4PpI1u5BgHAH2rM-24" vertex="1">
          <mxGeometry y="55" width="426.82" height="27" as="geometry" />
        </mxCell>
        <mxCell id="TFJGV4PpI1u5BgHAH2rM-29" value="" style="line;strokeWidth=1;fillColor=none;align=left;verticalAlign=middle;spacingTop=-1;spacingLeft=3;spacingRight=3;rotatable=0;labelPosition=right;points=[];portConstraint=eastwest;" parent="TFJGV4PpI1u5BgHAH2rM-24" vertex="1">
          <mxGeometry y="82" width="426.82" height="8" as="geometry" />
        </mxCell>
        <mxCell id="TFJGV4PpI1u5BgHAH2rM-30" value="&lt;b style=&quot;font-size: 11px; text-wrap-mode: nowrap;&quot;&gt;+ addMember(id: string, password: string, tel: string): void&lt;/b&gt;" style="text;html=1;strokeColor=none;fillColor=none;align=left;verticalAlign=middle;spacingLeft=4;spacingRight=4;overflow=hidden;rotatable=0;points=[[0,0.5],[1,0.5]];portConstraint=eastwest;whiteSpace=wrap;" parent="TFJGV4PpI1u5BgHAH2rM-24" vertex="1">
          <mxGeometry y="90" width="426.82" height="27" as="geometry" />
        </mxCell>
        <mxCell id="TFJGV4PpI1u5BgHAH2rM-31" value="&lt;b style=&quot;font-size: 11px; text-wrap-mode: nowrap;&quot;&gt;+ findMember(id: string, password: string): Member&lt;/b&gt;" style="text;html=1;strokeColor=none;fillColor=none;align=left;verticalAlign=middle;spacingLeft=4;spacingRight=4;overflow=hidden;rotatable=0;points=[[0,0.5],[1,0.5]];portConstraint=eastwest;whiteSpace=wrap;" parent="TFJGV4PpI1u5BgHAH2rM-24" vertex="1">
          <mxGeometry y="117" width="426.82" height="20" as="geometry" />
        </mxCell>
        <mxCell id="TFJGV4PpI1u5BgHAH2rM-32" value="&lt;b style=&quot;font-size: 11px; text-align: center; text-wrap-mode: nowrap;&quot;&gt;+ getLoggedInMember(): Member&lt;/b&gt;" style="text;html=1;strokeColor=none;fillColor=none;align=left;verticalAlign=middle;spacingLeft=4;spacingRight=4;overflow=hidden;rotatable=0;points=[[0,0.5],[1,0.5]];portConstraint=eastwest;whiteSpace=wrap;" parent="TFJGV4PpI1u5BgHAH2rM-24" vertex="1">
          <mxGeometry y="137" width="426.82" height="30" as="geometry" />
        </mxCell>
        <mxCell id="TFJGV4PpI1u5BgHAH2rM-35" value="&amp;lt;&amp;lt;entity&amp;gt;&amp;gt;&lt;br&gt;&lt;b&gt;RegisteredBicycle&lt;/b&gt;" style="swimlane;fontStyle=0;align=center;verticalAlign=top;childLayout=stackLayout;horizontal=1;startSize=55;horizontalStack=0;resizeParent=1;resizeParentMax=0;resizeLast=0;collapsible=0;marginBottom=0;html=1;whiteSpace=wrap;" parent="WIyWlLk6GJQsqaUBKTNV-1" vertex="1">
          <mxGeometry x="1197.37" y="983.5" width="424.25" height="130" as="geometry" />
        </mxCell>
        <mxCell id="kKlBXN92RMfAySFVlkef-13" value="&lt;b style=&quot;font-size: 11px; text-wrap-mode: nowrap;&quot;&gt;- registeredBicycleCollection: BicycleCollection&lt;/b&gt;" style="text;html=1;strokeColor=none;fillColor=none;align=left;verticalAlign=middle;spacingLeft=4;spacingRight=4;overflow=hidden;rotatable=0;points=[[0,0.5],[1,0.5]];portConstraint=eastwest;whiteSpace=wrap;" parent="TFJGV4PpI1u5BgHAH2rM-35" vertex="1">
          <mxGeometry y="55" width="424.25" height="27" as="geometry" />
        </mxCell>
        <mxCell id="TFJGV4PpI1u5BgHAH2rM-37" value="" style="line;strokeWidth=1;fillColor=none;align=left;verticalAlign=middle;spacingTop=-1;spacingLeft=3;spacingRight=3;rotatable=0;labelPosition=right;points=[];portConstraint=eastwest;" parent="TFJGV4PpI1u5BgHAH2rM-35" vertex="1">
          <mxGeometry y="82" width="424.25" height="8" as="geometry" />
        </mxCell>
        <mxCell id="TFJGV4PpI1u5BgHAH2rM-38" value="&lt;b style=&quot;font-size: 11px; text-wrap-mode: nowrap;&quot;&gt;+ addBicycle(bikeId: string, name: string): void&lt;/b&gt;" style="text;html=1;strokeColor=none;fillColor=none;align=left;verticalAlign=middle;spacingLeft=4;spacingRight=4;overflow=hidden;rotatable=0;points=[[0,0.5],[1,0.5]];portConstraint=eastwest;whiteSpace=wrap;" parent="TFJGV4PpI1u5BgHAH2rM-35" vertex="1">
          <mxGeometry y="90" width="424.25" height="20" as="geometry" />
        </mxCell>
        <mxCell id="TFJGV4PpI1u5BgHAH2rM-39" value="&lt;b style=&quot;font-size: 11px; text-wrap-mode: nowrap;&quot;&gt;+ findBicycle(bikeId: string): Bicycle&lt;/b&gt;" style="text;html=1;strokeColor=none;fillColor=none;align=left;verticalAlign=middle;spacingLeft=4;spacingRight=4;overflow=hidden;rotatable=0;points=[[0,0.5],[1,0.5]];portConstraint=eastwest;whiteSpace=wrap;" parent="TFJGV4PpI1u5BgHAH2rM-35" vertex="1">
          <mxGeometry y="110" width="424.25" height="20" as="geometry" />
        </mxCell>
        <mxCell id="kKlBXN92RMfAySFVlkef-0" value="&amp;lt;&amp;lt;entity&amp;gt;&amp;gt;&lt;br&gt;&lt;b&gt;BicycleCollection&lt;/b&gt;" style="swimlane;fontStyle=0;align=center;verticalAlign=top;childLayout=stackLayout;horizontal=1;startSize=55;horizontalStack=0;resizeParent=1;resizeParentMax=0;resizeLast=0;collapsible=0;marginBottom=0;html=1;whiteSpace=wrap;" parent="WIyWlLk6GJQsqaUBKTNV-1" vertex="1">
          <mxGeometry x="749.3699999999999" y="977" width="325" height="150" as="geometry" />
        </mxCell>
        <mxCell id="kKlBXN92RMfAySFVlkef-18" value="" style="endArrow=open;endFill=1;endSize=12;html=1;rounded=0;entryX=0.66;entryY=0.012;entryDx=0;entryDy=0;entryPerimeter=0;exitX=0;exitY=0.25;exitDx=0;exitDy=0;" parent="kKlBXN92RMfAySFVlkef-0" source="kKlBXN92RMfAySFVlkef-19" edge="1">
          <mxGeometry width="160" relative="1" as="geometry">
            <mxPoint x="162" y="144.5" as="sourcePoint" />
            <mxPoint x="161.69999999999982" y="292.4760000000001" as="targetPoint" />
          </mxGeometry>
        </mxCell>
        <mxCell id="kKlBXN92RMfAySFVlkef-1" value="&lt;b&gt;- bicycles: vetor&amp;lt;Bicycle&amp;gt;&lt;/b&gt;" style="text;html=1;strokeColor=none;fillColor=none;align=left;verticalAlign=middle;spacingLeft=4;spacingRight=4;overflow=hidden;rotatable=0;points=[[0,0.5],[1,0.5]];portConstraint=eastwest;whiteSpace=wrap;" parent="kKlBXN92RMfAySFVlkef-0" vertex="1">
          <mxGeometry y="55" width="325" height="20" as="geometry" />
        </mxCell>
        <mxCell id="kKlBXN92RMfAySFVlkef-3" value="" style="line;strokeWidth=1;fillColor=none;align=left;verticalAlign=middle;spacingTop=-1;spacingLeft=3;spacingRight=3;rotatable=0;labelPosition=right;points=[];portConstraint=eastwest;" parent="kKlBXN92RMfAySFVlkef-0" vertex="1">
          <mxGeometry y="75" width="325" height="8" as="geometry" />
        </mxCell>
        <mxCell id="kKlBXN92RMfAySFVlkef-4" value="&lt;b style=&quot;font-size: 11px; text-wrap-mode: nowrap;&quot;&gt;+&amp;nbsp;&lt;/b&gt;&lt;b style=&quot;font-size: 11px; text-wrap-mode: nowrap;&quot;&gt;addBicycle(bicycle: Bicycle)&lt;/b&gt;&lt;b style=&quot;font-size: 11px; text-wrap-mode: nowrap;&quot;&gt;: void&lt;/b&gt;" style="text;html=1;strokeColor=none;fillColor=none;align=left;verticalAlign=middle;spacingLeft=4;spacingRight=4;overflow=hidden;rotatable=0;points=[[0,0.5],[1,0.5]];portConstraint=eastwest;whiteSpace=wrap;" parent="kKlBXN92RMfAySFVlkef-0" vertex="1">
          <mxGeometry y="83" width="325" height="20" as="geometry" />
        </mxCell>
        <mxCell id="kKlBXN92RMfAySFVlkef-7" value="&lt;b style=&quot;font-size: 11px; text-wrap-mode: nowrap;&quot;&gt;+ getAll&lt;/b&gt;&lt;b style=&quot;font-size: 11px; text-wrap-mode: nowrap;&quot;&gt;Bicycles()&lt;/b&gt;&lt;b style=&quot;font-size: 11px; text-wrap-mode: nowrap;&quot;&gt;: vector&amp;lt;Bicycle&amp;gt;&lt;/b&gt;" style="text;html=1;strokeColor=none;fillColor=none;align=left;verticalAlign=middle;spacingLeft=4;spacingRight=4;overflow=hidden;rotatable=0;points=[[0,0.5],[1,0.5]];portConstraint=eastwest;whiteSpace=wrap;" parent="kKlBXN92RMfAySFVlkef-0" vertex="1">
          <mxGeometry y="103" width="325" height="27" as="geometry" />
        </mxCell>
        <mxCell id="kKlBXN92RMfAySFVlkef-14" value="&lt;b style=&quot;font-size: 11px; text-wrap-mode: nowrap;&quot;&gt;+ find&lt;/b&gt;&lt;b style=&quot;font-size: 11px; text-wrap-mode: nowrap;&quot;&gt;Bicycle(bikeId: string)&lt;/b&gt;&lt;b style=&quot;font-size: 11px; text-wrap-mode: nowrap;&quot;&gt;: Bicycle&lt;/b&gt;" style="text;html=1;strokeColor=none;fillColor=none;align=left;verticalAlign=middle;spacingLeft=4;spacingRight=4;overflow=hidden;rotatable=0;points=[[0,0.5],[1,0.5]];portConstraint=eastwest;whiteSpace=wrap;" parent="kKlBXN92RMfAySFVlkef-0" vertex="1">
          <mxGeometry y="130" width="325" height="20" as="geometry" />
        </mxCell>
        <mxCell id="kKlBXN92RMfAySFVlkef-6" value="" style="endArrow=open;endFill=1;endSize=12;html=1;rounded=0;" parent="WIyWlLk6GJQsqaUBKTNV-1" edge="1">
          <mxGeometry width="160" relative="1" as="geometry">
            <mxPoint x="597.3699999999999" y="1049" as="sourcePoint" />
            <mxPoint x="747.3699999999999" y="1049" as="targetPoint" />
          </mxGeometry>
        </mxCell>
        <mxCell id="kKlBXN92RMfAySFVlkef-10" value="" style="endArrow=open;endFill=1;endSize=12;html=1;rounded=0;exitX=-0.008;exitY=0.247;exitDx=0;exitDy=0;exitPerimeter=0;" parent="WIyWlLk6GJQsqaUBKTNV-1" source="kKlBXN92RMfAySFVlkef-13" edge="1">
          <mxGeometry width="160" relative="1" as="geometry">
            <mxPoint x="1167.37" y="1046" as="sourcePoint" />
            <mxPoint x="1074.37" y="1046" as="targetPoint" />
          </mxGeometry>
        </mxCell>
        <mxCell id="kKlBXN92RMfAySFVlkef-15" value="&lt;b&gt;1&lt;/b&gt;" style="text;html=1;align=center;verticalAlign=middle;whiteSpace=wrap;rounded=0;" parent="WIyWlLk6GJQsqaUBKTNV-1" vertex="1">
          <mxGeometry x="1059.37" y="1010" width="60" height="30" as="geometry" />
        </mxCell>
        <mxCell id="kKlBXN92RMfAySFVlkef-16" value="&lt;b&gt;1&lt;/b&gt;" style="text;html=1;align=center;verticalAlign=middle;whiteSpace=wrap;rounded=0;" parent="WIyWlLk6GJQsqaUBKTNV-1" vertex="1">
          <mxGeometry x="1159.37" y="1010" width="60" height="30" as="geometry" />
        </mxCell>
        <mxCell id="kKlBXN92RMfAySFVlkef-19" value="&lt;b&gt;1&lt;/b&gt;" style="text;html=1;align=center;verticalAlign=middle;whiteSpace=wrap;rounded=0;" parent="WIyWlLk6GJQsqaUBKTNV-1" vertex="1">
          <mxGeometry x="909.3699999999999" y="1127" width="60" height="30" as="geometry" />
        </mxCell>
        <mxCell id="kKlBXN92RMfAySFVlkef-20" value="&lt;b&gt;0..*&lt;/b&gt;" style="text;html=1;align=center;verticalAlign=middle;whiteSpace=wrap;rounded=0;" parent="WIyWlLk6GJQsqaUBKTNV-1" vertex="1">
          <mxGeometry x="914.9999999999999" y="1230" width="60" height="30" as="geometry" />
        </mxCell>
        <mxCell id="kKlBXN92RMfAySFVlkef-21" value="&amp;lt;&amp;lt;entity&amp;gt;&amp;gt;&lt;br&gt;&lt;b&gt;MemberCollection&lt;/b&gt;" style="swimlane;fontStyle=0;align=center;verticalAlign=top;childLayout=stackLayout;horizontal=1;startSize=55;horizontalStack=0;resizeParent=1;resizeParentMax=0;resizeLast=0;collapsible=0;marginBottom=0;html=1;whiteSpace=wrap;" parent="WIyWlLk6GJQsqaUBKTNV-1" vertex="1">
          <mxGeometry x="220" y="1375" width="434.75" height="150" as="geometry" />
        </mxCell>
        <mxCell id="kKlBXN92RMfAySFVlkef-23" value="&lt;b&gt;- members: vetor&amp;lt;Member&amp;gt;&lt;/b&gt;" style="text;html=1;strokeColor=none;fillColor=none;align=left;verticalAlign=middle;spacingLeft=4;spacingRight=4;overflow=hidden;rotatable=0;points=[[0,0.5],[1,0.5]];portConstraint=eastwest;whiteSpace=wrap;" parent="kKlBXN92RMfAySFVlkef-21" vertex="1">
          <mxGeometry y="55" width="434.75" height="20" as="geometry" />
        </mxCell>
        <mxCell id="kKlBXN92RMfAySFVlkef-24" value="" style="line;strokeWidth=1;fillColor=none;align=left;verticalAlign=middle;spacingTop=-1;spacingLeft=3;spacingRight=3;rotatable=0;labelPosition=right;points=[];portConstraint=eastwest;" parent="kKlBXN92RMfAySFVlkef-21" vertex="1">
          <mxGeometry y="75" width="434.75" height="8" as="geometry" />
        </mxCell>
        <mxCell id="kKlBXN92RMfAySFVlkef-25" value="&lt;b style=&quot;font-size: 11px; text-wrap-mode: nowrap;&quot;&gt;+&amp;nbsp;&lt;/b&gt;&lt;b style=&quot;font-size: 11px; text-wrap-mode: nowrap;&quot;&gt;addMember(member: Member)&lt;/b&gt;&lt;b style=&quot;font-size: 11px; text-wrap-mode: nowrap;&quot;&gt;: void&lt;/b&gt;" style="text;html=1;strokeColor=none;fillColor=none;align=left;verticalAlign=middle;spacingLeft=4;spacingRight=4;overflow=hidden;rotatable=0;points=[[0,0.5],[1,0.5]];portConstraint=eastwest;whiteSpace=wrap;" parent="kKlBXN92RMfAySFVlkef-21" vertex="1">
          <mxGeometry y="83" width="434.75" height="20" as="geometry" />
        </mxCell>
        <mxCell id="kKlBXN92RMfAySFVlkef-26" value="&lt;b style=&quot;font-size: 11px; text-wrap-mode: nowrap;&quot;&gt;+ find&lt;/b&gt;&lt;b style=&quot;font-size: 11px; text-wrap-mode: nowrap;&quot;&gt;Member(id: string, password: string)&lt;/b&gt;&lt;b style=&quot;font-size: 11px; text-wrap-mode: nowrap;&quot;&gt;: Member&lt;/b&gt;" style="text;html=1;strokeColor=none;fillColor=none;align=left;verticalAlign=middle;spacingLeft=4;spacingRight=4;overflow=hidden;rotatable=0;points=[[0,0.5],[1,0.5]];portConstraint=eastwest;whiteSpace=wrap;" parent="kKlBXN92RMfAySFVlkef-21" vertex="1">
          <mxGeometry y="103" width="434.75" height="20" as="geometry" />
        </mxCell>
        <mxCell id="kKlBXN92RMfAySFVlkef-27" value="&lt;b style=&quot;font-size: 11px; text-wrap-mode: nowrap;&quot;&gt;+ getAll&lt;/b&gt;&lt;b style=&quot;font-size: 11px; text-wrap-mode: nowrap;&quot;&gt;Members()&lt;/b&gt;&lt;b style=&quot;font-size: 11px; text-wrap-mode: nowrap;&quot;&gt;: vector&amp;lt;Member&amp;gt;&lt;/b&gt;" style="text;html=1;strokeColor=none;fillColor=none;align=left;verticalAlign=middle;spacingLeft=4;spacingRight=4;overflow=hidden;rotatable=0;points=[[0,0.5],[1,0.5]];portConstraint=eastwest;whiteSpace=wrap;" parent="kKlBXN92RMfAySFVlkef-21" vertex="1">
          <mxGeometry y="123" width="434.75" height="27" as="geometry" />
        </mxCell>
        <mxCell id="pNu27SbAlygegUXZ7f7L-1" value="&lt;b&gt;1&lt;/b&gt;" style="text;html=1;align=center;verticalAlign=middle;whiteSpace=wrap;rounded=0;" parent="WIyWlLk6GJQsqaUBKTNV-1" vertex="1">
          <mxGeometry x="428.6199999999999" y="1585.5" width="60" height="30" as="geometry" />
        </mxCell>
        <mxCell id="pNu27SbAlygegUXZ7f7L-2" value="&lt;b&gt;1&lt;/b&gt;" style="text;html=1;align=center;verticalAlign=middle;whiteSpace=wrap;rounded=0;" parent="WIyWlLk6GJQsqaUBKTNV-1" vertex="1">
          <mxGeometry x="428.6199999999999" y="1518" width="60" height="30" as="geometry" />
        </mxCell>
        <mxCell id="pNu27SbAlygegUXZ7f7L-3" value="" style="endArrow=open;endFill=1;endSize=12;html=1;rounded=0;entryX=0;entryY=0;entryDx=0;entryDy=0;" parent="WIyWlLk6GJQsqaUBKTNV-1" target="pNu27SbAlygegUXZ7f7L-5" edge="1">
          <mxGeometry width="160" relative="1" as="geometry">
            <mxPoint x="436.83000000000015" y="1375.46" as="sourcePoint" />
            <mxPoint x="437.9100000000001" y="1271" as="targetPoint" />
          </mxGeometry>
        </mxCell>
        <mxCell id="pNu27SbAlygegUXZ7f7L-4" value="&lt;b&gt;1&lt;/b&gt;" style="text;html=1;align=center;verticalAlign=middle;whiteSpace=wrap;rounded=0;" parent="WIyWlLk6GJQsqaUBKTNV-1" vertex="1">
          <mxGeometry x="428.6199999999999" y="1345" width="60" height="30" as="geometry" />
        </mxCell>
        <mxCell id="pNu27SbAlygegUXZ7f7L-5" value="&lt;b&gt;0..*&lt;/b&gt;" style="text;html=1;align=center;verticalAlign=middle;whiteSpace=wrap;rounded=0;" parent="WIyWlLk6GJQsqaUBKTNV-1" vertex="1">
          <mxGeometry x="436.6199999999999" y="1286" width="60" height="30" as="geometry" />
        </mxCell>
        <mxCell id="pNu27SbAlygegUXZ7f7L-6" value="" style="endArrow=open;endFill=1;endSize=12;html=1;rounded=0;" parent="WIyWlLk6GJQsqaUBKTNV-1" edge="1">
          <mxGeometry width="160" relative="1" as="geometry">
            <mxPoint x="437.6199999999999" y="1616" as="sourcePoint" />
            <mxPoint x="438" y="1526" as="targetPoint" />
          </mxGeometry>
        </mxCell>
        <mxCell id="QMeGvAC8nn5fREAp3r3B-4" value="&lt;b&gt;1&lt;/b&gt;" style="text;html=1;align=center;verticalAlign=middle;whiteSpace=wrap;rounded=0;" parent="WIyWlLk6GJQsqaUBKTNV-1" vertex="1">
          <mxGeometry x="823.99" y="83" width="60" height="30" as="geometry" />
        </mxCell>
        <mxCell id="QMeGvAC8nn5fREAp3r3B-5" value="&lt;b&gt;1&lt;/b&gt;" style="text;html=1;align=center;verticalAlign=middle;whiteSpace=wrap;rounded=0;" parent="WIyWlLk6GJQsqaUBKTNV-1" vertex="1">
          <mxGeometry x="900" y="83" width="60" height="30" as="geometry" />
        </mxCell>
        <mxCell id="QMeGvAC8nn5fREAp3r3B-6" value="" style="endArrow=open;endFill=1;endSize=12;html=1;rounded=0;" parent="WIyWlLk6GJQsqaUBKTNV-1" edge="1">
          <mxGeometry width="160" relative="1" as="geometry">
            <mxPoint x="839.74" y="118" as="sourcePoint" />
            <mxPoint x="940" y="118" as="targetPoint" />
          </mxGeometry>
        </mxCell>
        <mxCell id="QMeGvAC8nn5fREAp3r3B-7" value="&lt;b&gt;1&lt;/b&gt;" style="text;html=1;align=center;verticalAlign=middle;whiteSpace=wrap;rounded=0;" parent="WIyWlLk6GJQsqaUBKTNV-1" vertex="1">
          <mxGeometry x="823.99" y="240" width="60" height="30" as="geometry" />
        </mxCell>
        <mxCell id="QMeGvAC8nn5fREAp3r3B-8" value="&lt;b&gt;1&lt;/b&gt;" style="text;html=1;align=center;verticalAlign=middle;whiteSpace=wrap;rounded=0;" parent="WIyWlLk6GJQsqaUBKTNV-1" vertex="1">
          <mxGeometry x="900" y="240" width="60" height="30" as="geometry" />
        </mxCell>
        <mxCell id="QMeGvAC8nn5fREAp3r3B-9" value="" style="endArrow=open;endFill=1;endSize=12;html=1;rounded=0;" parent="WIyWlLk6GJQsqaUBKTNV-1" edge="1">
          <mxGeometry width="160" relative="1" as="geometry">
            <mxPoint x="839.74" y="275" as="sourcePoint" />
            <mxPoint x="940" y="275" as="targetPoint" />
          </mxGeometry>
        </mxCell>
        <mxCell id="QMeGvAC8nn5fREAp3r3B-10" value="&lt;b&gt;1&lt;/b&gt;" style="text;html=1;align=center;verticalAlign=middle;whiteSpace=wrap;rounded=0;" parent="WIyWlLk6GJQsqaUBKTNV-1" vertex="1">
          <mxGeometry x="823.99" y="394" width="60" height="30" as="geometry" />
        </mxCell>
        <mxCell id="QMeGvAC8nn5fREAp3r3B-11" value="&lt;b&gt;1&lt;/b&gt;" style="text;html=1;align=center;verticalAlign=middle;whiteSpace=wrap;rounded=0;" parent="WIyWlLk6GJQsqaUBKTNV-1" vertex="1">
          <mxGeometry x="900" y="394" width="60" height="30" as="geometry" />
        </mxCell>
        <mxCell id="QMeGvAC8nn5fREAp3r3B-13" value="&lt;b&gt;1&lt;/b&gt;" style="text;html=1;align=center;verticalAlign=middle;whiteSpace=wrap;rounded=0;" parent="WIyWlLk6GJQsqaUBKTNV-1" vertex="1">
          <mxGeometry x="823.99" y="530" width="60" height="30" as="geometry" />
        </mxCell>
        <mxCell id="QMeGvAC8nn5fREAp3r3B-14" value="&lt;b&gt;1&lt;/b&gt;" style="text;html=1;align=center;verticalAlign=middle;whiteSpace=wrap;rounded=0;" parent="WIyWlLk6GJQsqaUBKTNV-1" vertex="1">
          <mxGeometry x="900" y="530" width="60" height="30" as="geometry" />
        </mxCell>
        <mxCell id="QMeGvAC8nn5fREAp3r3B-15" value="" style="endArrow=open;endFill=1;endSize=12;html=1;rounded=0;" parent="WIyWlLk6GJQsqaUBKTNV-1" edge="1">
          <mxGeometry width="160" relative="1" as="geometry">
            <mxPoint x="839.74" y="565" as="sourcePoint" />
            <mxPoint x="940" y="565" as="targetPoint" />
          </mxGeometry>
        </mxCell>
        <mxCell id="QMeGvAC8nn5fREAp3r3B-16" value="" style="endArrow=open;endFill=1;endSize=12;html=1;rounded=0;entryX=1;entryY=0.5;entryDx=0;entryDy=0;" parent="WIyWlLk6GJQsqaUBKTNV-1" edge="1">
          <mxGeometry width="160" relative="1" as="geometry">
            <mxPoint x="940" y="688" as="sourcePoint" />
            <mxPoint x="840" y="689" as="targetPoint" />
          </mxGeometry>
        </mxCell>
        <mxCell id="QMeGvAC8nn5fREAp3r3B-17" value="&lt;b&gt;1&lt;/b&gt;" style="text;html=1;align=center;verticalAlign=middle;whiteSpace=wrap;rounded=0;" parent="WIyWlLk6GJQsqaUBKTNV-1" vertex="1">
          <mxGeometry x="823.99" y="647" width="60" height="30" as="geometry" />
        </mxCell>
        <mxCell id="QMeGvAC8nn5fREAp3r3B-18" value="&lt;b&gt;1&lt;/b&gt;" style="text;html=1;align=center;verticalAlign=middle;whiteSpace=wrap;rounded=0;" parent="WIyWlLk6GJQsqaUBKTNV-1" vertex="1">
          <mxGeometry x="900" y="647" width="60" height="30" as="geometry" />
        </mxCell>
        <mxCell id="QMeGvAC8nn5fREAp3r3B-19" value="&lt;b&gt;1&lt;/b&gt;" style="text;html=1;align=center;verticalAlign=middle;whiteSpace=wrap;rounded=0;" parent="WIyWlLk6GJQsqaUBKTNV-1" vertex="1">
          <mxGeometry x="840" y="797" width="60" height="30" as="geometry" />
        </mxCell>
        <mxCell id="QMeGvAC8nn5fREAp3r3B-20" value="&lt;b&gt;1&lt;/b&gt;" style="text;html=1;align=center;verticalAlign=middle;whiteSpace=wrap;rounded=0;" parent="WIyWlLk6GJQsqaUBKTNV-1" vertex="1">
          <mxGeometry x="900" y="797" width="60" height="30" as="geometry" />
        </mxCell>
        <mxCell id="QMeGvAC8nn5fREAp3r3B-21" value="" style="endArrow=open;endFill=1;endSize=12;html=1;rounded=0;" parent="WIyWlLk6GJQsqaUBKTNV-1" edge="1">
          <mxGeometry width="160" relative="1" as="geometry">
            <mxPoint x="859.61" y="832" as="sourcePoint" />
            <mxPoint x="940" y="832" as="targetPoint" />
          </mxGeometry>
        </mxCell>
      </root>
    </mxGraphModel>
  </diagram>
</mxfile>
